<svg version="1.1" id="Layer_1" xmlns="http://www.w3.org/2000/svg" xmlns:xlink="http://www.w3.org/1999/xlink" x="0px" y="0px"
	 width="100%" viewBox="0 0 2000 2000" enable-background="new 0 0 2000 2000" xml:space="preserve">
<path fill="#241D26" opacity="1.000000" stroke="none" 
	d="
M1312.000000,2001.000000 
	C874.666687,2001.000000 437.833344,2001.000000 1.000000,2001.000000 
	C1.000000,1334.333374 1.000000,667.666687 1.000000,1.000000 
	C667.666687,1.000000 1334.333374,1.000000 2001.000000,1.000000 
	C2001.000000,667.666687 2001.000000,1334.333374 2001.000000,2001.000000 
	C1771.500000,2001.000000 1542.000000,2001.000000 1312.000000,2001.000000 
M1350.838745,727.500061 
	C1350.838745,695.785095 1350.838745,664.070129 1350.838745,631.742981 
	C1348.688599,632.893250 1347.229004,633.617188 1345.823364,634.434143 
	C1228.542847,702.597412 1111.258179,770.753540 994.031433,839.009094 
	C990.619812,840.995483 988.161926,841.189575 984.600037,839.135437 
	C866.227600,770.874268 747.780701,702.742249 629.340820,634.598083 
	C627.961365,633.804321 626.530823,633.099182 624.652588,632.102478 
	C624.580811,633.586548 624.494080,634.543213 624.494019,635.499878 
	C624.487976,766.647827 624.497925,897.795776 624.424866,1028.943726 
	C624.423218,1031.832886 625.350403,1033.393555 627.838074,1034.818848 
	C645.291687,1044.818726 662.650635,1054.983643 680.053162,1065.073120 
	C681.139709,1065.703125 682.338257,1066.140015 684.013611,1066.909668 
	C684.013611,955.937805 684.013611,845.555603 684.013611,734.542175 
	C686.260986,735.768005 687.981384,736.662598 689.660522,737.628784 
	C788.071533,794.252808 886.486816,850.869446 984.852722,907.571777 
	C988.023132,909.399353 990.308228,909.689758 993.713745,907.704834 
	C1091.376709,850.776978 1189.124268,793.993958 1286.864746,737.198975 
	C1288.332764,736.346008 1289.885376,735.638489 1291.962891,734.573853 
	C1291.962891,845.774963 1291.962891,956.041809 1291.962891,1066.822266 
	C1293.784180,1065.834106 1295.222046,1065.100098 1296.616211,1064.290649 
	C1313.294678,1054.607056 1329.909180,1044.811157 1346.690918,1035.310303 
	C1349.880615,1033.504517 1350.930298,1031.588379 1350.926270,1027.957275 
	C1350.816895,928.138306 1350.838623,828.319214 1350.838745,727.500061 
M996.242615,1297.746704 
	C1091.414795,1242.426025 1186.587036,1187.105347 1282.314941,1131.461670 
	C1263.201904,1120.803955 1244.710205,1110.603516 1226.359863,1100.154907 
	C1223.181396,1098.345093 1220.935669,1098.519531 1217.841919,1100.324341 
	C1153.587402,1137.810181 1089.264160,1175.177979 1024.948242,1212.558594 
	C1022.857422,1213.773926 1020.700317,1214.875122 1018.422241,1216.111938 
	C1018.422241,1141.055420 1018.422241,1066.531982 1018.422241,991.583374 
	C998.858826,991.583374 979.498718,991.583374 959.064575,991.583374 
	C959.064575,1066.629150 959.064575,1141.287476 959.064575,1217.027344 
	C951.181702,1212.514526 944.560059,1208.753052 937.965942,1204.944092 
	C877.440796,1169.983032 816.908386,1135.034546 756.436279,1099.981934 
	C753.606445,1098.341553 751.599426,1098.423828 748.835632,1100.077393 
	C733.983032,1108.964355 718.995972,1117.626465 704.063660,1126.380371 
	C700.813293,1128.285889 697.596802,1130.249146 694.026733,1132.388428 
	C695.941833,1133.514648 697.364624,1134.364502 698.799805,1135.193237 
	C792.906677,1189.534180 887.049255,1243.813721 981.034851,1298.363647 
	C986.574524,1301.579102 990.805481,1302.344482 996.242615,1297.746704 
M1200.438110,618.040039 
	C1207.210815,621.959534 1214.092529,625.705872 1220.706909,629.876526 
	C1223.707886,631.768799 1225.893555,631.417603 1228.726196,629.639038 
	C1239.865479,622.644775 1251.149536,615.880920 1262.376831,609.026733 
	C1268.710938,605.159790 1275.039429,601.283691 1282.023071,597.012512 
	C1279.640381,595.514771 1278.036865,594.432007 1276.365479,593.466980 
	C1181.356812,538.609802 1086.333008,483.778809 991.370361,428.842163 
	C988.207458,427.012451 985.926880,427.035309 982.793945,428.860168 
	C888.281250,483.911560 793.711914,538.865601 699.156372,593.843445 
	C697.645630,594.721863 696.196716,595.706726 694.248779,596.939575 
	C696.139587,598.223083 697.442139,599.188477 698.820190,600.030334 
	C714.591370,609.664795 730.469666,619.129456 746.086975,629.006775 
	C750.032776,631.502319 752.766357,631.304565 756.714172,629.000977 
	C832.203613,584.950195 907.797424,541.078186 983.332031,497.104645 
	C985.831360,495.649628 987.708374,495.120575 990.508728,496.742737 
	C1060.229492,537.129944 1130.014160,577.407104 1200.438110,618.040039 
M447.493652,1529.173218 
	C451.919220,1529.173218 456.344757,1529.173218 461.534546,1529.173218 
	C460.913483,1498.671143 460.305420,1468.806519 459.683533,1438.265015 
	C467.928680,1452.980957 475.924835,1467.145020 483.811096,1481.370117 
	C488.249420,1489.376099 490.400543,1498.034546 490.473755,1507.183105 
	C490.531769,1514.435181 490.485443,1521.688232 490.485443,1528.776245 
	C503.187744,1528.776245 514.901611,1528.776245 526.840393,1528.776245 
	C526.840393,1525.233521 527.004944,1522.075684 526.812927,1518.939819 
	C525.763367,1501.796631 529.772156,1486.062134 538.948792,1471.454468 
	C545.042358,1461.754395 550.391663,1451.587402 556.096375,1441.642212 
	C556.794556,1440.425049 557.630371,1439.286865 557.912048,1438.858276 
	C557.263550,1468.495972 556.603394,1498.668091 555.939880,1528.994141 
	C568.742554,1528.994141 580.369873,1528.994141 592.217651,1528.994141 
	C592.217651,1473.259399 592.217651,1417.704102 592.217651,1361.831299 
	C583.109253,1361.831299 574.292114,1361.747559 565.480652,1361.934204 
	C564.340332,1361.958252 562.789551,1363.124512 562.169434,1364.192017 
	C544.643921,1394.361328 527.212036,1424.584839 509.781219,1454.809082 
	C509.470306,1455.348267 509.358246,1456.002075 509.575134,1455.366577 
	C491.390045,1424.728271 473.339203,1394.287842 455.206421,1363.896118 
	C454.641663,1362.949463 453.239105,1361.939453 452.210419,1361.921509 
	C443.270020,1361.766724 434.325775,1361.832153 425.282623,1361.832153 
	C425.282623,1417.835815 425.282623,1473.382812 425.282623,1529.173218 
	C432.543762,1529.173218 439.520081,1529.173218 447.493652,1529.173218 
M731.015930,1470.585938 
	C737.132751,1459.933228 743.249634,1449.280518 749.316528,1438.714844 
	C748.700806,1468.982178 748.092529,1498.883301 747.481567,1528.918457 
	C760.195557,1528.918457 771.923523,1528.918457 783.679688,1528.918457 
	C783.679688,1473.101562 783.679688,1417.540039 783.679688,1361.826782 
	C775.529602,1361.826782 767.696228,1362.030151 759.881531,1361.736450 
	C756.258362,1361.600098 754.271179,1362.755859 752.417480,1365.911133 
	C734.864990,1395.790527 717.129150,1425.562378 699.569336,1455.157471 
	C699.940735,1455.565063 699.530823,1455.248169 699.290894,1454.832886 
	C681.911743,1424.767212 664.558411,1394.686523 647.131592,1364.648560 
	C646.469604,1363.507446 645.126465,1361.994751 644.069885,1361.970093 
	C634.987244,1361.757446 625.897461,1361.847778 616.747681,1361.847778 
	C616.747681,1417.949463 616.747681,1473.388428 616.747681,1528.818115 
	C628.740601,1528.818115 640.467773,1528.818115 653.068665,1528.818115 
	C652.413757,1498.407593 651.766785,1468.368774 651.119934,1438.333862 
	C658.880676,1452.073486 666.780151,1465.906738 674.525940,1479.825317 
	C679.724976,1489.167969 682.277039,1499.212646 682.023254,1509.965698 
	C681.875122,1516.240479 681.996216,1522.521484 681.996216,1528.860352 
	C694.452271,1528.860352 706.182251,1528.860352 718.423157,1528.860352 
	C717.139343,1508.324585 718.527588,1488.582764 731.015930,1470.585938 
M1368.010376,1499.581909 
	C1372.954102,1508.434448 1377.847168,1517.316162 1382.898682,1526.106689 
	C1383.615967,1527.355225 1385.084351,1529.014893 1386.235840,1529.039429 
	C1396.855347,1529.265015 1407.481567,1529.172363 1418.217407,1529.172363 
	C1418.217407,1473.196167 1418.217407,1417.674561 1418.217407,1362.013672 
	C1406.133911,1362.013672 1394.353516,1362.013672 1382.634277,1362.013672 
	C1382.634277,1391.711304 1382.634277,1421.216675 1382.634277,1451.495361 
	C1381.521606,1449.625732 1380.685547,1448.294800 1379.920410,1446.924316 
	C1364.855103,1419.944702 1349.816895,1392.949951 1334.691772,1366.004028 
	C1333.800781,1364.416748 1332.256714,1362.056396 1330.957642,1362.017334 
	C1320.203247,1361.694702 1309.434937,1361.834839 1298.701904,1361.834839 
	C1298.701904,1417.896484 1298.701904,1473.315918 1298.701904,1528.883179 
	C1310.820312,1528.883179 1322.714844,1528.883179 1334.346313,1528.883179 
	C1334.346313,1499.177490 1334.346313,1469.765991 1334.346313,1439.341309 
	C1345.798950,1459.823608 1356.732300,1479.376831 1368.010376,1499.581909 
M1517.496826,1524.043945 
	C1520.369263,1520.703369 1523.241699,1517.362915 1526.157104,1513.972534 
	C1526.815430,1518.685059 1527.536987,1523.850464 1528.292114,1529.255859 
	C1539.476929,1529.255859 1550.563599,1529.255859 1562.547241,1529.255859 
	C1561.804932,1513.278809 1561.075195,1497.575439 1560.337402,1481.697144 
	C1562.768188,1481.566284 1565.204468,1481.435059 1567.723145,1481.299438 
	C1567.723145,1469.305908 1567.723145,1457.579224 1567.723145,1445.799316 
	C1545.701904,1445.799316 1523.963501,1445.799316 1502.158691,1445.799316 
	C1502.158691,1457.744263 1502.158691,1469.374878 1502.158691,1481.587646 
	C1510.055176,1481.587646 1517.807007,1481.587646 1525.547363,1481.587646 
	C1525.384399,1488.919800 1523.281372,1492.946899 1517.118652,1493.784424 
	C1509.003418,1494.886963 1500.577515,1495.287231 1492.466553,1494.375732 
	C1484.846802,1493.519043 1480.430542,1487.740112 1479.057129,1480.142822 
	C1478.497437,1477.047607 1478.225708,1473.860474 1478.210938,1470.713257 
	C1478.131104,1453.718628 1478.136597,1436.723389 1478.207642,1419.728638 
	C1478.220093,1416.746704 1478.509521,1413.738770 1478.975586,1410.791138 
	C1480.038574,1404.068237 1483.428589,1400.146729 1490.094604,1399.069580 
	C1495.469849,1398.201294 1501.015137,1397.939697 1506.467407,1398.081543 
	C1519.765625,1398.427612 1525.708496,1404.767822 1525.819824,1418.177734 
	C1525.862183,1423.280151 1525.826660,1428.382935 1525.826660,1433.561768 
	C1538.184814,1433.561768 1549.920410,1433.561768 1562.468628,1433.561768 
	C1561.955200,1422.321533 1562.183105,1411.294434 1560.798828,1400.473511 
	C1558.244751,1380.508179 1545.389526,1366.301270 1525.698486,1363.536133 
	C1511.811401,1361.586182 1497.355591,1361.194580 1483.419678,1362.651855 
	C1460.707275,1365.026611 1447.756104,1378.116577 1444.028687,1400.555054 
	C1442.430664,1410.175049 1442.105347,1420.091675 1442.100830,1429.873901 
	C1442.090942,1451.348633 1442.045044,1472.856567 1443.204590,1494.286499 
	C1443.937866,1507.840088 1448.815796,1520.745361 1462.255371,1526.646484 
	C1480.480469,1534.648804 1499.072998,1534.534546 1517.496826,1524.043945 
M951.480042,1418.499634 
	C951.480042,1455.409546 951.480042,1492.319458 951.480042,1528.918579 
	C977.721436,1528.918579 1003.223694,1529.738525 1028.642944,1528.639771 
	C1046.575684,1527.864502 1060.296509,1518.606689 1066.587036,1500.995483 
	C1068.906982,1494.500122 1070.661987,1487.440430 1070.810669,1480.597656 
	C1071.320435,1457.132446 1071.584106,1433.627441 1070.697021,1410.184692 
	C1070.374146,1401.649292 1067.781494,1392.665039 1064.089233,1384.900879 
	C1055.812012,1367.495605 1039.914307,1362.096558 1021.906189,1361.884644 
	C999.748108,1361.623901 977.584656,1361.816895 955.423523,1361.836426 
	C954.161499,1361.837524 952.899536,1362.042603 951.480042,1362.166504 
	C951.480042,1380.853149 951.480042,1399.176392 951.480042,1418.499634 
M1186.027832,1365.376221 
	C1178.509277,1364.193970 1171.009766,1362.160889 1163.468506,1361.992554 
	C1142.484619,1361.523926 1121.483276,1361.829590 1100.488892,1361.829590 
	C1098.736206,1361.829590 1096.983398,1361.829590 1095.283936,1361.829590 
	C1095.283936,1418.030029 1095.283936,1473.589600 1095.283936,1529.168335 
	C1119.531250,1529.168335 1143.499878,1529.547852 1167.451416,1529.067139 
	C1194.157715,1528.530884 1212.052979,1512.943115 1213.618652,1486.339966 
	C1215.208984,1459.316650 1214.933350,1432.082031 1213.647827,1405.026855 
	C1212.808960,1387.368896 1204.480591,1372.805786 1186.027832,1365.376221 
M892.041687,1363.324463 
	C878.418762,1362.915649 864.738342,1361.525269 851.185974,1362.319580 
	C828.819397,1363.630249 813.897583,1376.902344 810.209900,1399.075317 
	C808.069275,1411.946167 808.054199,1425.246826 807.949463,1438.360840 
	C807.820618,1454.498657 807.742371,1470.720337 809.185120,1486.767090 
	C811.190247,1509.068970 823.879700,1524.148682 843.999023,1527.506714 
	C856.343323,1529.567139 869.197876,1529.346436 881.789551,1528.982910 
	C906.103760,1528.280884 922.503479,1514.353516 925.866150,1490.214844 
	C929.852905,1461.596558 929.072021,1432.652832 926.440125,1403.977417 
	C924.578003,1383.688354 914.041016,1368.729248 892.041687,1363.324463 
M1029.388916,692.865967 
	C1050.181641,680.772766 1070.974487,668.679504 1092.237305,656.312927 
	C1090.934937,655.394165 1090.189453,654.775757 1089.362427,654.298218 
	C1056.801025,635.498108 1024.214111,616.741821 991.699280,597.861694 
	C989.154785,596.384277 987.294495,596.630493 984.921265,598.015564 
	C953.021729,616.632751 921.077759,635.173706 889.154724,653.750610 
	C887.972473,654.438538 886.891174,655.299622 885.355957,656.361511 
	C919.558899,676.114075 953.105835,695.526306 986.748535,714.770996 
	C988.053589,715.517517 990.612549,715.246399 992.022949,714.450073 
	C1004.335144,707.498047 1016.518555,700.317932 1029.388916,692.865967 
M848.897827,1055.567627 
	C858.331543,1060.998901 867.765259,1066.430176 877.589844,1072.086548 
	C877.728577,1070.557861 877.838257,1069.908813 877.839294,1069.259399 
	C877.899597,1031.799316 877.917480,994.339050 878.071289,956.879333 
	C878.082642,954.115662 877.055786,952.780029 874.787720,951.476868 
	C843.057007,933.245117 811.381042,914.917969 779.683716,896.628052 
	C778.299133,895.829102 776.836182,895.165955 775.142700,894.303528 
	C775.001770,895.500183 774.861267,896.147522 774.858459,896.795593 
	C774.698242,934.080994 774.588501,971.366638 774.330078,1008.651367 
	C774.307922,1011.844849 775.683594,1013.390137 778.215881,1014.840515 
	C801.599487,1028.232666 824.930847,1041.716187 848.897827,1055.567627 
M1211.154419,977.500000 
	C1211.154419,949.904297 1211.154419,922.308533 1211.154419,893.982483 
	C1209.246338,894.935852 1208.071655,895.447876 1206.968872,896.084412 
	C1174.966797,914.555481 1142.999268,933.086853 1110.929810,951.440186 
	C1107.998169,953.118042 1107.808960,955.215088 1107.816284,957.987671 
	C1107.911499,994.470093 1107.948120,1030.952759 1107.999268,1067.435303 
	C1108.001099,1068.710938 1107.999512,1069.986572 1107.999512,1071.819214 
	C1109.287720,1071.255737 1110.044434,1071.007324 1110.719604,1070.617676 
	C1143.299438,1051.817627 1175.892456,1033.040039 1208.378540,1014.079163 
	C1209.807495,1013.245056 1210.989014,1010.740723 1211.032227,1008.983643 
	C1211.281616,998.827515 1211.154297,988.662231 1211.154419,977.500000 
M1274.838745,1440.500000 
	C1274.838745,1414.409668 1274.838745,1388.319336 1274.838745,1362.122314 
	C1262.571777,1362.122314 1250.850708,1362.122314 1239.160034,1362.122314 
	C1239.160034,1417.925903 1239.160034,1473.435059 1239.160034,1528.770142 
	C1251.204346,1528.770142 1262.913330,1528.770142 1274.838745,1528.770142 
	C1274.838745,1499.412964 1274.838745,1470.456421 1274.838745,1440.500000 
z"/>
<path fill="#FDFDFE" opacity="1.000000" stroke="none" 
	d="
M1350.838745,728.000122 
	C1350.838623,828.319214 1350.816895,928.138306 1350.926270,1027.957275 
	C1350.930298,1031.588379 1349.880615,1033.504517 1346.690918,1035.310303 
	C1329.909180,1044.811157 1313.294678,1054.607056 1296.616211,1064.290649 
	C1295.222046,1065.100098 1293.784180,1065.834106 1291.962891,1066.822266 
	C1291.962891,956.041809 1291.962891,845.774963 1291.962891,734.573853 
	C1289.885376,735.638489 1288.332764,736.346008 1286.864746,737.198975 
	C1189.124268,793.993958 1091.376709,850.776978 993.713745,907.704834 
	C990.308228,909.689758 988.023132,909.399353 984.852722,907.571777 
	C886.486816,850.869446 788.071533,794.252808 689.660522,737.628784 
	C687.981384,736.662598 686.260986,735.768005 684.013611,734.542175 
	C684.013611,845.555603 684.013611,955.937805 684.013611,1066.909668 
	C682.338257,1066.140015 681.139709,1065.703125 680.053162,1065.073120 
	C662.650635,1054.983643 645.291687,1044.818726 627.838074,1034.818848 
	C625.350403,1033.393555 624.423218,1031.832886 624.424866,1028.943726 
	C624.497925,897.795776 624.487976,766.647827 624.494019,635.499878 
	C624.494080,634.543213 624.580811,633.586548 624.652588,632.102478 
	C626.530823,633.099182 627.961365,633.804321 629.340820,634.598083 
	C747.780701,702.742249 866.227600,770.874268 984.600037,839.135437 
	C988.161926,841.189575 990.619812,840.995483 994.031433,839.009094 
	C1111.258179,770.753540 1228.542847,702.597412 1345.823364,634.434143 
	C1347.229004,633.617188 1348.688599,632.893250 1350.838745,631.742981 
	C1350.838745,664.070129 1350.838745,695.785095 1350.838745,728.000122 
z"/>
<path fill="#27A1FC" opacity="1.000000" stroke="none" 
	d="
M995.913879,1297.909180 
	C990.805481,1302.344482 986.574524,1301.579102 981.034851,1298.363647 
	C887.049255,1243.813721 792.906677,1189.534180 698.799805,1135.193237 
	C697.364624,1134.364502 695.941833,1133.514648 694.026733,1132.388428 
	C697.596802,1130.249146 700.813293,1128.285889 704.063660,1126.380371 
	C718.995972,1117.626465 733.983032,1108.964355 748.835632,1100.077393 
	C751.599426,1098.423828 753.606445,1098.341553 756.436279,1099.981934 
	C816.908386,1135.034546 877.440796,1169.983032 937.965942,1204.944092 
	C944.560059,1208.753052 951.181702,1212.514526 959.064575,1217.027344 
	C959.064575,1141.287476 959.064575,1066.629150 959.064575,991.583374 
	C979.498718,991.583374 998.858826,991.583374 1018.422241,991.583374 
	C1018.422241,1066.531982 1018.422241,1141.055420 1018.422241,1216.111938 
	C1020.700317,1214.875122 1022.857422,1213.773926 1024.948242,1212.558594 
	C1089.264160,1175.177979 1153.587402,1137.810181 1217.841919,1100.324341 
	C1220.935669,1098.519531 1223.181396,1098.345093 1226.359863,1100.154907 
	C1244.710205,1110.603516 1263.201904,1120.803955 1282.314941,1131.461670 
	C1186.587036,1187.105347 1091.414795,1242.426025 995.913879,1297.909180 
z"/>
<path fill="#3344FE" opacity="1.000000" stroke="none" 
	d="
M1200.112793,617.871948 
	C1130.014160,577.407104 1060.229492,537.129944 990.508728,496.742737 
	C987.708374,495.120575 985.831360,495.649628 983.332031,497.104645 
	C907.797424,541.078186 832.203613,584.950195 756.714172,629.000977 
	C752.766357,631.304565 750.032776,631.502319 746.086975,629.006775 
	C730.469666,619.129456 714.591370,609.664795 698.820190,600.030334 
	C697.442139,599.188477 696.139587,598.223083 694.248779,596.939575 
	C696.196716,595.706726 697.645630,594.721863 699.156372,593.843445 
	C793.711914,538.865601 888.281250,483.911560 982.793945,428.860168 
	C985.926880,427.035309 988.207458,427.012451 991.370361,428.842163 
	C1086.333008,483.778809 1181.356812,538.609802 1276.365479,593.466980 
	C1278.036865,594.432007 1279.640381,595.514771 1282.023071,597.012512 
	C1275.039429,601.283691 1268.710938,605.159790 1262.376831,609.026733 
	C1251.149536,615.880920 1239.865479,622.644775 1228.726196,629.639038 
	C1225.893555,631.417603 1223.707886,631.768799 1220.706909,629.876526 
	C1214.092529,625.705872 1207.210815,621.959534 1200.112793,617.871948 
z"/>
<path fill="#FDFDFD" opacity="1.000000" stroke="none" 
	d="
M446.995056,1529.173218 
	C439.520081,1529.173218 432.543762,1529.173218 425.282623,1529.173218 
	C425.282623,1473.382812 425.282623,1417.835815 425.282623,1361.832153 
	C434.325775,1361.832153 443.270020,1361.766724 452.210419,1361.921509 
	C453.239105,1361.939453 454.641663,1362.949463 455.206421,1363.896118 
	C473.339203,1394.287842 491.390045,1424.728271 509.575134,1455.366577 
	C509.358246,1456.002075 509.470306,1455.348267 509.781219,1454.809082 
	C527.212036,1424.584839 544.643921,1394.361328 562.169434,1364.192017 
	C562.789551,1363.124512 564.340332,1361.958252 565.480652,1361.934204 
	C574.292114,1361.747559 583.109253,1361.831299 592.217651,1361.831299 
	C592.217651,1417.704102 592.217651,1473.259399 592.217651,1528.994141 
	C580.369873,1528.994141 568.742554,1528.994141 555.939880,1528.994141 
	C556.603394,1498.668091 557.263550,1468.495972 557.912048,1438.858276 
	C557.630371,1439.286865 556.794556,1440.425049 556.096375,1441.642212 
	C550.391663,1451.587402 545.042358,1461.754395 538.948792,1471.454468 
	C529.772156,1486.062134 525.763367,1501.796631 526.812927,1518.939819 
	C527.004944,1522.075684 526.840393,1525.233521 526.840393,1528.776245 
	C514.901611,1528.776245 503.187744,1528.776245 490.485443,1528.776245 
	C490.485443,1521.688232 490.531769,1514.435181 490.473755,1507.183105 
	C490.400543,1498.034546 488.249420,1489.376099 483.811096,1481.370117 
	C475.924835,1467.145020 467.928680,1452.980957 459.683533,1438.265015 
	C460.305420,1468.806519 460.913483,1498.671143 461.534546,1529.173218 
	C456.344757,1529.173218 451.919220,1529.173218 446.995056,1529.173218 
z"/>
<path fill="#FDFDFD" opacity="1.000000" stroke="none" 
	d="
M730.850830,1470.914062 
	C718.527588,1488.582764 717.139343,1508.324585 718.423157,1528.860352 
	C706.182251,1528.860352 694.452271,1528.860352 681.996216,1528.860352 
	C681.996216,1522.521484 681.875122,1516.240479 682.023254,1509.965698 
	C682.277039,1499.212646 679.724976,1489.167969 674.525940,1479.825317 
	C666.780151,1465.906738 658.880676,1452.073486 651.119934,1438.333862 
	C651.766785,1468.368774 652.413757,1498.407593 653.068665,1528.818115 
	C640.467773,1528.818115 628.740601,1528.818115 616.747681,1528.818115 
	C616.747681,1473.388428 616.747681,1417.949463 616.747681,1361.847778 
	C625.897461,1361.847778 634.987244,1361.757446 644.069885,1361.970093 
	C645.126465,1361.994751 646.469604,1363.507446 647.131592,1364.648560 
	C664.558411,1394.686523 681.911743,1424.767212 699.290894,1454.832886 
	C699.530823,1455.248169 699.940735,1455.565063 699.569336,1455.157471 
	C717.129150,1425.562378 734.864990,1395.790527 752.417480,1365.911133 
	C754.271179,1362.755859 756.258362,1361.600098 759.881531,1361.736450 
	C767.696228,1362.030151 775.529602,1361.826782 783.679688,1361.826782 
	C783.679688,1417.540039 783.679688,1473.101562 783.679688,1528.918457 
	C771.923523,1528.918457 760.195557,1528.918457 747.481567,1528.918457 
	C748.092529,1498.883301 748.700806,1468.982178 749.316528,1438.714844 
	C743.249634,1449.280518 737.132751,1459.933228 730.850830,1470.914062 
z"/>
<path fill="#FCFCFC" opacity="1.000000" stroke="none" 
	d="
M1367.837891,1499.256104 
	C1356.732300,1479.376831 1345.798950,1459.823608 1334.346313,1439.341309 
	C1334.346313,1469.765991 1334.346313,1499.177490 1334.346313,1528.883179 
	C1322.714844,1528.883179 1310.820312,1528.883179 1298.701904,1528.883179 
	C1298.701904,1473.315918 1298.701904,1417.896484 1298.701904,1361.834839 
	C1309.434937,1361.834839 1320.203247,1361.694702 1330.957642,1362.017334 
	C1332.256714,1362.056396 1333.800781,1364.416748 1334.691772,1366.004028 
	C1349.816895,1392.949951 1364.855103,1419.944702 1379.920410,1446.924316 
	C1380.685547,1448.294800 1381.521606,1449.625732 1382.634277,1451.495361 
	C1382.634277,1421.216675 1382.634277,1391.711304 1382.634277,1362.013672 
	C1394.353516,1362.013672 1406.133911,1362.013672 1418.217407,1362.013672 
	C1418.217407,1417.674561 1418.217407,1473.196167 1418.217407,1529.172363 
	C1407.481567,1529.172363 1396.855347,1529.265015 1386.235840,1529.039429 
	C1385.084351,1529.014893 1383.615967,1527.355225 1382.898682,1526.106689 
	C1377.847168,1517.316162 1372.954102,1508.434448 1367.837891,1499.256104 
z"/>
<path fill="#FDFDFD" opacity="1.000000" stroke="none" 
	d="
M1517.210205,1524.259399 
	C1499.072998,1534.534546 1480.480469,1534.648804 1462.255371,1526.646484 
	C1448.815796,1520.745361 1443.937866,1507.840088 1443.204590,1494.286499 
	C1442.045044,1472.856567 1442.090942,1451.348633 1442.100830,1429.873901 
	C1442.105347,1420.091675 1442.430664,1410.175049 1444.028687,1400.555054 
	C1447.756104,1378.116577 1460.707275,1365.026611 1483.419678,1362.651855 
	C1497.355591,1361.194580 1511.811401,1361.586182 1525.698486,1363.536133 
	C1545.389526,1366.301270 1558.244751,1380.508179 1560.798828,1400.473511 
	C1562.183105,1411.294434 1561.955200,1422.321533 1562.468628,1433.561768 
	C1549.920410,1433.561768 1538.184814,1433.561768 1525.826660,1433.561768 
	C1525.826660,1428.382935 1525.862183,1423.280151 1525.819824,1418.177734 
	C1525.708496,1404.767822 1519.765625,1398.427612 1506.467407,1398.081543 
	C1501.015137,1397.939697 1495.469849,1398.201294 1490.094604,1399.069580 
	C1483.428589,1400.146729 1480.038574,1404.068237 1478.975586,1410.791138 
	C1478.509521,1413.738770 1478.220093,1416.746704 1478.207642,1419.728638 
	C1478.136597,1436.723389 1478.131104,1453.718628 1478.210938,1470.713257 
	C1478.225708,1473.860474 1478.497437,1477.047607 1479.057129,1480.142822 
	C1480.430542,1487.740112 1484.846802,1493.519043 1492.466553,1494.375732 
	C1500.577515,1495.287231 1509.003418,1494.886963 1517.118652,1493.784424 
	C1523.281372,1492.946899 1525.384399,1488.919800 1525.547363,1481.587646 
	C1517.807007,1481.587646 1510.055176,1481.587646 1502.158691,1481.587646 
	C1502.158691,1469.374878 1502.158691,1457.744263 1502.158691,1445.799316 
	C1523.963501,1445.799316 1545.701904,1445.799316 1567.723145,1445.799316 
	C1567.723145,1457.579224 1567.723145,1469.305908 1567.723145,1481.299438 
	C1565.204468,1481.435059 1562.768188,1481.566284 1560.337402,1481.697144 
	C1561.075195,1497.575439 1561.804932,1513.278809 1562.547241,1529.255859 
	C1550.563599,1529.255859 1539.476929,1529.255859 1528.292114,1529.255859 
	C1527.536987,1523.850464 1526.815430,1518.685059 1526.157104,1513.972534 
	C1523.241699,1517.362915 1520.369263,1520.703369 1517.210205,1524.259399 
z"/>
<path fill="#FCFCFC" opacity="1.000000" stroke="none" 
	d="
M951.480042,1417.999512 
	C951.480042,1399.176392 951.480042,1380.853149 951.480042,1362.166504 
	C952.899536,1362.042603 954.161499,1361.837524 955.423523,1361.836426 
	C977.584656,1361.816895 999.748108,1361.623901 1021.906189,1361.884644 
	C1039.914307,1362.096558 1055.812012,1367.495605 1064.089233,1384.900879 
	C1067.781494,1392.665039 1070.374146,1401.649292 1070.697021,1410.184692 
	C1071.584106,1433.627441 1071.320435,1457.132446 1070.810669,1480.597656 
	C1070.661987,1487.440430 1068.906982,1494.500122 1066.587036,1500.995483 
	C1060.296509,1518.606689 1046.575684,1527.864502 1028.642944,1528.639771 
	C1003.223694,1529.738525 977.721436,1528.918579 951.480042,1528.918579 
	C951.480042,1492.319458 951.480042,1455.409546 951.480042,1417.999512 
M1033.663818,1483.715454 
	C1034.090698,1481.770752 1034.880981,1479.827393 1034.888550,1477.880981 
	C1034.973267,1456.243408 1035.133423,1434.602417 1034.826538,1412.968750 
	C1034.719360,1405.416626 1031.035278,1400.143555 1024.586182,1399.413452 
	C1012.489319,1398.044067 1000.251343,1397.921021 988.084778,1397.280396 
	C988.084778,1429.950806 988.084778,1461.350464 988.084778,1492.849854 
	C998.766846,1492.849854 1009.222595,1493.172485 1019.644958,1492.721924 
	C1025.369019,1492.474487 1030.839478,1490.604126 1033.663818,1483.715454 
z"/>
<path fill="#FEFEFE" opacity="1.000000" stroke="none" 
	d="
M1186.367310,1365.563599 
	C1204.480591,1372.805786 1212.808960,1387.368896 1213.647827,1405.026855 
	C1214.933350,1432.082031 1215.208984,1459.316650 1213.618652,1486.339966 
	C1212.052979,1512.943115 1194.157715,1528.530884 1167.451416,1529.067139 
	C1143.499878,1529.547852 1119.531250,1529.168335 1095.283936,1529.168335 
	C1095.283936,1473.589600 1095.283936,1418.030029 1095.283936,1361.829590 
	C1096.983398,1361.829590 1098.736206,1361.829590 1100.488892,1361.829590 
	C1121.483276,1361.829590 1142.484619,1361.523926 1163.468506,1361.992554 
	C1171.009766,1362.160889 1178.509277,1364.193970 1186.367310,1365.563599 
M1131.164062,1421.500000 
	C1131.164062,1445.270386 1131.164062,1469.040649 1131.164062,1493.683594 
	C1143.530273,1493.129517 1155.324463,1492.975952 1167.038818,1491.928589 
	C1173.537476,1491.347412 1177.240723,1486.774292 1178.091797,1480.209595 
	C1178.411987,1477.740601 1178.795288,1475.254028 1178.803467,1472.774292 
	C1178.863770,1454.613037 1178.877441,1436.451050 1178.794556,1418.290039 
	C1178.781006,1415.314575 1178.461182,1412.291382 1177.858154,1409.378296 
	C1176.793579,1404.235962 1173.655151,1399.975952 1168.513550,1399.459595 
	C1156.220581,1398.224731 1143.834595,1397.915649 1131.164062,1397.215088 
	C1131.164062,1405.881470 1131.164062,1413.190674 1131.164062,1421.500000 
z"/>
<path fill="#FDFDFD" opacity="1.000000" stroke="none" 
	d="
M892.433899,1363.471558 
	C914.041016,1368.729248 924.578003,1383.688354 926.440125,1403.977417 
	C929.072021,1432.652832 929.852905,1461.596558 925.866150,1490.214844 
	C922.503479,1514.353516 906.103760,1528.280884 881.789551,1528.982910 
	C869.197876,1529.346436 856.343323,1529.567139 843.999023,1527.506714 
	C823.879700,1524.148682 811.190247,1509.068970 809.185120,1486.767090 
	C807.742371,1470.720337 807.820618,1454.498657 807.949463,1438.360840 
	C808.054199,1425.246826 808.069275,1411.946167 810.209900,1399.075317 
	C813.897583,1376.902344 828.819397,1363.630249 851.185974,1362.319580 
	C864.738342,1361.525269 878.418762,1362.915649 892.433899,1363.471558 
M845.870239,1406.753296 
	C845.247864,1410.999390 844.138550,1415.239746 844.088196,1419.492554 
	C843.883301,1436.800781 843.954102,1454.113037 844.045776,1471.423218 
	C844.063232,1474.726318 844.425842,1478.063232 844.997375,1481.319946 
	C846.024231,1487.171265 849.637756,1491.044678 855.450134,1491.902710 
	C861.162292,1492.746094 867.021973,1493.111084 872.793213,1492.930298 
	C886.762634,1492.492432 891.446167,1487.453247 891.477966,1473.457153 
	C891.520264,1454.815063 891.503784,1436.172729 891.467773,1417.530518 
	C891.463623,1415.375977 891.317993,1413.199707 890.991089,1411.071533 
	C889.917969,1404.084961 886.617432,1399.874146 879.614258,1399.125000 
	C871.936646,1398.303589 864.092957,1398.584961 856.351868,1398.979736 
	C851.854065,1399.209106 848.254822,1401.808228 845.870239,1406.753296 
z"/>
<path fill="#D664DC" opacity="1.000000" stroke="none" 
	d="
M1029.064575,693.035767 
	C1016.518555,700.317932 1004.335144,707.498047 992.022949,714.450073 
	C990.612549,715.246399 988.053589,715.517517 986.748535,714.770996 
	C953.105835,695.526306 919.558899,676.114075 885.355957,656.361511 
	C886.891174,655.299622 887.972473,654.438538 889.154724,653.750610 
	C921.077759,635.173706 953.021729,616.632751 984.921265,598.015564 
	C987.294495,596.630493 989.154785,596.384277 991.699280,597.861694 
	C1024.214111,616.741821 1056.801025,635.498108 1089.362427,654.298218 
	C1090.189453,654.775757 1090.934937,655.394165 1092.237305,656.312927 
	C1070.974487,668.679504 1050.181641,680.772766 1029.064575,693.035767 
z"/>
<path fill="#B04EC5" opacity="1.000000" stroke="none" 
	d="
M848.587646,1055.370361 
	C824.930847,1041.716187 801.599487,1028.232666 778.215881,1014.840515 
	C775.683594,1013.390137 774.307922,1011.844849 774.330078,1008.651367 
	C774.588501,971.366638 774.698242,934.080994 774.858459,896.795593 
	C774.861267,896.147522 775.001770,895.500183 775.142700,894.303528 
	C776.836182,895.165955 778.299133,895.829102 779.683716,896.628052 
	C811.381042,914.917969 843.057007,933.245117 874.787720,951.476868 
	C877.055786,952.780029 878.082642,954.115662 878.071289,956.879333 
	C877.917480,994.339050 877.899597,1031.799316 877.839294,1069.259399 
	C877.838257,1069.908813 877.728577,1070.557861 877.589844,1072.086548 
	C867.765259,1066.430176 858.331543,1060.998901 848.587646,1055.370361 
z"/>
<path fill="#B14EC6" opacity="1.000000" stroke="none" 
	d="
M1211.154541,978.000000 
	C1211.154297,988.662231 1211.281616,998.827515 1211.032227,1008.983643 
	C1210.989014,1010.740723 1209.807495,1013.245056 1208.378540,1014.079163 
	C1175.892456,1033.040039 1143.299438,1051.817627 1110.719604,1070.617676 
	C1110.044434,1071.007324 1109.287720,1071.255737 1107.999512,1071.819214 
	C1107.999512,1069.986572 1108.001099,1068.710938 1107.999268,1067.435303 
	C1107.948120,1030.952759 1107.911499,994.470093 1107.816284,957.987671 
	C1107.808960,955.215088 1107.998169,953.118042 1110.929810,951.440186 
	C1142.999268,933.086853 1174.966797,914.555481 1206.968872,896.084412 
	C1208.071655,895.447876 1209.246338,894.935852 1211.154419,893.982483 
	C1211.154419,922.308533 1211.154419,949.904297 1211.154541,978.000000 
z"/>
<path fill="#FDFDFE" opacity="1.000000" stroke="none" 
	d="
M1274.838745,1441.000000 
	C1274.838745,1470.456421 1274.838745,1499.412964 1274.838745,1528.770142 
	C1262.913330,1528.770142 1251.204346,1528.770142 1239.160034,1528.770142 
	C1239.160034,1473.435059 1239.160034,1417.925903 1239.160034,1362.122314 
	C1250.850708,1362.122314 1262.571777,1362.122314 1274.838745,1362.122314 
	C1274.838745,1388.319336 1274.838745,1414.409668 1274.838745,1441.000000 
z"/>
<path fill="#241D26" opacity="1.000000" stroke="none" 
	d="
M1033.494141,1484.073242 
	C1030.839478,1490.604126 1025.369019,1492.474487 1019.644958,1492.721924 
	C1009.222595,1493.172485 998.766846,1492.849854 988.084778,1492.849854 
	C988.084778,1461.350464 988.084778,1429.950806 988.084778,1397.280396 
	C1000.251343,1397.921021 1012.489319,1398.044067 1024.586182,1399.413452 
	C1031.035278,1400.143555 1034.719360,1405.416626 1034.826538,1412.968750 
	C1035.133423,1434.602417 1034.973267,1456.243408 1034.888550,1477.880981 
	C1034.880981,1479.827393 1034.090698,1481.770752 1033.494141,1484.073242 
z"/>
<path fill="#261F28" opacity="1.000000" stroke="none" 
	d="
M1131.164062,1421.000000 
	C1131.164062,1413.190674 1131.164062,1405.881470 1131.164062,1397.215088 
	C1143.834595,1397.915649 1156.220581,1398.224731 1168.513550,1399.459595 
	C1173.655151,1399.975952 1176.793579,1404.235962 1177.858154,1409.378296 
	C1178.461182,1412.291382 1178.781006,1415.314575 1178.794556,1418.290039 
	C1178.877441,1436.451050 1178.863770,1454.613037 1178.803467,1472.774292 
	C1178.795288,1475.254028 1178.411987,1477.740601 1178.091797,1480.209595 
	C1177.240723,1486.774292 1173.537476,1491.347412 1167.038818,1491.928589 
	C1155.324463,1492.975952 1143.530273,1493.129517 1131.164062,1493.683594 
	C1131.164062,1469.040649 1131.164062,1445.270386 1131.164062,1421.000000 
z"/>
<path fill="#251E27" opacity="1.000000" stroke="none" 
	d="
M845.989258,1406.378418 
	C848.254822,1401.808228 851.854065,1399.209106 856.351868,1398.979736 
	C864.092957,1398.584961 871.936646,1398.303589 879.614258,1399.125000 
	C886.617432,1399.874146 889.917969,1404.084961 890.991089,1411.071533 
	C891.317993,1413.199707 891.463623,1415.375977 891.467773,1417.530518 
	C891.503784,1436.172729 891.520264,1454.815063 891.477966,1473.457153 
	C891.446167,1487.453247 886.762634,1492.492432 872.793213,1492.930298 
	C867.021973,1493.111084 861.162292,1492.746094 855.450134,1491.902710 
	C849.637756,1491.044678 846.024231,1487.171265 844.997375,1481.319946 
	C844.425842,1478.063232 844.063232,1474.726318 844.045776,1471.423218 
	C843.954102,1454.113037 843.883301,1436.800781 844.088196,1419.492554 
	C844.138550,1415.239746 845.247864,1410.999390 845.989258,1406.378418 
z"/>
</svg>